# xmcd CD database file
#
# Track frame offsets:
#	150
#	29629
#	50478
#
# Disc length: 1061 seconds
#
# Revision: 0
# Processed by: cddbd v1.5.1PL0 Copyright (c) Steve Scherf et al.
# Submitted via: CDex 1.51
#
DISCID=23042303
DTITLE=冨田ラボ - アタタカイ雨 feat.田中拡邦(MAMALAID RAG)
DYEAR=2005
DGENRE=JPop
TTITLE0=アタタカイ雨 feat.田中拡邦(MAMALAID RAG)
TTITLE1=YOUR TIME (edition 1)
TTITLE2=アタタカイ雨 feat.田中拡邦(MAMALAID RAG) instrumental
EXTD=YEAR: 2005
EXTT0=
EXTT1=
EXTT2=
PLAYORDER=
